<svg width="12" height="11" viewBox="0 0 12 11" fill="none" xmlns="http://www.w3.org/2000/svg">
<path d="M2.94 10.216C2.436 10.216 1.992 10.128 1.608 9.952C1.224 9.776 0.928 9.532 0.72 9.22C0.512 8.9 0.408 8.532 0.408 8.116C0.408 7.764 0.48 7.444 0.624 7.156C0.776 6.868 0.976 6.64 1.224 6.472C1.48 6.304 1.76 6.22 2.064 6.22C2.344 6.22 2.58 6.292 2.772 6.436C2.964 6.572 3.084 6.764 3.132 7.012C2.716 7.012 2.384 7.124 2.136 7.348C1.888 7.564 1.764 7.86 1.764 8.236C1.764 8.58 1.868 8.856 2.076 9.064C2.284 9.272 2.56 9.376 2.904 9.376C3.328 9.376 3.676 9.236 3.948 8.956C4.228 8.668 4.368 8.308 4.368 7.876C4.368 7.5 4.264 7.144 4.056 6.808C3.848 6.472 3.536 6.064 3.12 5.584C2.688 5.088 2.36 4.664 2.136 4.312C1.92 3.952 1.812 3.56 1.812 3.136C1.812 2.72 1.928 2.348 2.16 2.02C2.392 1.684 2.712 1.42 3.12 1.228C3.528 1.036 3.988 0.939999 4.5 0.939999C5.148 0.939999 5.664 1.092 6.048 1.396C6.44 1.7 6.636 2.108 6.636 2.62C6.636 2.956 6.552 3.228 6.384 3.436C6.216 3.644 5.996 3.748 5.724 3.748C5.42 3.748 5.176 3.624 4.992 3.376C5.144 3.264 5.264 3.116 5.352 2.932C5.44 2.748 5.484 2.556 5.484 2.356C5.484 2.1 5.408 1.896 5.256 1.744C5.104 1.592 4.896 1.516 4.632 1.516C4.312 1.516 4.048 1.632 3.84 1.864C3.64 2.088 3.54 2.376 3.54 2.728C3.54 3.048 3.632 3.348 3.816 3.628C4 3.9 4.288 4.252 4.68 4.684C5 5.028 5.256 5.324 5.448 5.572C5.648 5.82 5.816 6.108 5.952 6.436C6.096 6.756 6.168 7.104 6.168 7.48C6.168 7.992 6.024 8.456 5.736 8.872C5.456 9.288 5.068 9.616 4.572 9.856C4.084 10.096 3.54 10.216 2.94 10.216ZM9.71175 1.852C9.17575 2.068 8.75975 2.4 8.46375 2.848C8.17575 3.288 8.03175 3.828 8.03175 4.468C8.03175 4.764 8.05975 4.972 8.11575 5.092C8.17175 5.204 8.19975 5.268 8.19975 5.284C7.76775 5.284 7.44375 5.196 7.22775 5.02C7.01975 4.836 6.91575 4.536 6.91575 4.12C6.91575 3.608 7.12375 3.112 7.53975 2.632C7.96375 2.144 8.50375 1.752 9.15975 1.456C9.81575 1.152 10.4718 0.999999 11.1278 0.999999C11.2398 0.999999 11.3998 1.008 11.6078 1.024L9.69975 10H7.97175L9.71175 1.852Z" fill="#070707"/>
</svg>
