<svg width="210" height="49" viewBox="0 0 210 49" fill="none" xmlns="http://www.w3.org/2000/svg">
<path d="M10.76 37.864C8.744 37.864 6.968 37.512 5.432 36.808C3.896 36.104 2.712 35.128 1.88 33.88C1.048 32.6 0.632 31.128 0.632 29.464C0.632 28.056 0.92 26.776 1.496 25.624C2.104 24.472 2.904 23.56 3.896 22.888C4.92 22.216 6.04 21.88 7.256 21.88C8.376 21.88 9.32 22.168 10.088 22.744C10.856 23.288 11.336 24.056 11.528 25.048C9.864 25.048 8.536 25.496 7.544 26.392C6.552 27.256 6.056 28.44 6.056 29.944C6.056 31.32 6.472 32.424 7.304 33.256C8.136 34.088 9.24 34.504 10.616 34.504C12.312 34.504 13.704 33.944 14.792 32.824C15.912 31.672 16.472 30.232 16.472 28.504C16.472 27 16.056 25.576 15.224 24.232C14.392 22.888 13.144 21.256 11.48 19.336C9.752 17.352 8.44 15.656 7.544 14.248C6.68 12.808 6.248 11.24 6.248 9.544C6.248 7.88 6.712 6.392 7.64 5.08C8.568 3.736 9.848 2.68 11.48 1.912C13.112 1.144 14.952 0.759997 17 0.759997C19.592 0.759997 21.656 1.368 23.192 2.584C24.76 3.8 25.544 5.432 25.544 7.48C25.544 8.824 25.208 9.912 24.536 10.744C23.864 11.576 22.984 11.992 21.896 11.992C20.68 11.992 19.704 11.496 18.968 10.504C19.576 10.056 20.056 9.464 20.408 8.728C20.76 7.992 20.936 7.224 20.936 6.424C20.936 5.4 20.632 4.584 20.024 3.976C19.416 3.368 18.584 3.064 17.528 3.064C16.248 3.064 15.192 3.528 14.36 4.456C13.56 5.352 13.16 6.504 13.16 7.912C13.16 9.192 13.528 10.392 14.264 11.512C15 12.6 16.152 14.008 17.72 15.736C19 17.112 20.024 18.296 20.792 19.288C21.592 20.28 22.264 21.432 22.808 22.744C23.384 24.024 23.672 25.416 23.672 26.92C23.672 28.968 23.096 30.824 21.944 32.488C20.824 34.152 19.272 35.464 17.288 36.424C15.336 37.384 13.16 37.864 10.76 37.864ZM31.127 37.288C29.591 37.288 28.343 36.808 27.383 35.848C26.455 34.888 25.991 33.448 25.991 31.528C25.991 30.728 26.119 29.688 26.375 28.408L29.639 13H36.551L33.095 29.32C32.999 29.704 32.951 30.104 32.951 30.52C32.951 31.928 33.431 32.632 34.391 32.632C35.287 32.632 36.055 32.264 36.695 31.528C37.335 30.76 37.847 29.72 38.231 28.408L41.495 13H48.407L44.951 29.32C44.791 30.12 44.711 30.696 44.711 31.048C44.711 32.104 45.255 32.632 46.343 32.632C47.815 32.632 49.175 31.704 50.423 29.848C51.703 27.992 52.727 25.784 53.495 23.224C54.263 20.664 54.647 18.456 54.647 16.6C54.583 16.76 54.375 16.888 54.023 16.984C53.671 17.048 53.367 17.08 53.111 17.08C52.567 17.08 52.135 16.824 51.815 16.312C51.527 15.8 51.383 15.24 51.383 14.632C51.383 13.864 51.623 13.24 52.103 12.76C52.615 12.28 53.367 12.04 54.359 12.04C55.415 12.04 56.183 12.44 56.663 13.24C57.143 14.008 57.383 15 57.383 16.216C57.383 19.096 56.887 22.184 55.895 25.48C54.903 28.744 53.383 31.528 51.335 33.832C49.287 36.136 46.743 37.288 43.703 37.288C42.135 37.288 40.855 36.952 39.863 36.28C38.871 35.608 38.231 34.6 37.943 33.256C36.151 35.944 33.879 37.288 31.127 37.288ZM64.9734 37.288C62.6054 37.288 60.7654 36.68 59.4534 35.464C58.1414 34.216 57.4854 32.28 57.4854 29.656C57.4854 27.448 57.9174 25.016 58.7814 22.36C59.6454 19.704 61.0534 17.416 63.0054 15.496C64.9574 13.544 67.4374 12.568 70.4454 12.568C73.9654 12.568 75.7254 14.104 75.7254 17.176C75.7254 18.968 75.2134 20.616 74.1894 22.12C73.1654 23.624 71.8054 24.84 70.1094 25.768C68.4134 26.664 66.6054 27.176 64.6854 27.304C64.6214 28.264 64.5894 28.904 64.5894 29.224C64.5894 30.792 64.8614 31.864 65.4054 32.44C65.9494 32.984 66.8294 33.256 68.0454 33.256C69.7734 33.256 71.2454 32.856 72.4614 32.056C73.7094 31.256 75.0694 30.04 76.5414 28.408H78.1734C74.6214 34.328 70.2214 37.288 64.9734 37.288ZM65.0694 25C66.2534 24.936 67.3734 24.52 68.4294 23.752C69.5174 22.984 70.3814 22.008 71.0214 20.824C71.6934 19.64 72.0294 18.392 72.0294 17.08C72.0294 15.768 71.6294 15.112 70.8294 15.112C69.6774 15.112 68.5414 16.12 67.4214 18.136C66.3334 20.152 65.5494 22.44 65.0694 25ZM83.3953 37.288C81.0273 37.288 79.1873 36.68 77.8753 35.464C76.5633 34.216 75.9072 32.28 75.9072 29.656C75.9072 27.448 76.3392 25.016 77.2033 22.36C78.0673 19.704 79.4753 17.416 81.4273 15.496C83.3793 13.544 85.8593 12.568 88.8672 12.568C92.3873 12.568 94.1473 14.104 94.1473 17.176C94.1473 18.968 93.6353 20.616 92.6113 22.12C91.5873 23.624 90.2273 24.84 88.5312 25.768C86.8353 26.664 85.0273 27.176 83.1073 27.304C83.0433 28.264 83.0113 28.904 83.0113 29.224C83.0113 30.792 83.2833 31.864 83.8273 32.44C84.3713 32.984 85.2513 33.256 86.4673 33.256C88.1953 33.256 89.6673 32.856 90.8833 32.056C92.1313 31.256 93.4913 30.04 94.9633 28.408H96.5953C93.0433 34.328 88.6433 37.288 83.3953 37.288ZM83.4913 25C84.6753 24.936 85.7953 24.52 86.8513 23.752C87.9393 22.984 88.8033 22.008 89.4433 20.824C90.1153 19.64 90.4513 18.392 90.4513 17.08C90.4513 15.768 90.0513 15.112 89.2513 15.112C88.0993 15.112 86.9633 16.12 85.8433 18.136C84.7553 20.152 83.9713 22.44 83.4913 25ZM98.6011 11.224H105.513L104.745 14.824C106.345 13.448 108.217 12.76 110.361 12.76C112.153 12.76 113.577 13.352 114.633 14.536C115.689 15.72 116.217 17.656 116.217 20.344C116.217 22.872 115.849 25.432 115.113 28.024C114.377 30.584 113.129 32.776 111.369 34.6C109.609 36.392 107.289 37.288 104.409 37.288C102.361 37.288 101.001 36.712 100.329 35.56L97.8331 47.272L90.5851 49L98.6011 11.224ZM102.921 33.112C104.457 33.112 105.721 32.392 106.713 30.952C107.737 29.512 108.473 27.8 108.921 25.816C109.401 23.8 109.641 21.928 109.641 20.2C109.641 17.544 108.841 16.216 107.241 16.216C106.665 16.216 106.073 16.424 105.465 16.84C104.889 17.256 104.377 17.832 103.929 18.568L101.097 32.008C101.353 32.744 101.961 33.112 102.921 33.112ZM126.574 37.864C123.662 37.864 121.454 37.064 119.95 35.464C118.478 33.864 117.742 31.848 117.742 29.416C117.742 27.688 118.094 25.96 118.798 24.232C119.534 22.472 120.574 20.936 121.918 19.624C123.262 18.312 124.83 17.432 126.622 16.984C125.63 16.28 124.894 15.432 124.414 14.44C123.934 13.416 123.694 12.344 123.694 11.224C123.694 9.56 124.142 7.928 125.038 6.328C125.966 4.728 127.23 3.432 128.83 2.44C130.462 1.416 132.254 0.903998 134.206 0.903998C136.222 0.903998 137.87 1.432 139.15 2.488C140.43 3.544 141.07 5.016 141.07 6.904C141.07 8.312 140.718 9.496 140.014 10.456C139.31 11.416 138.478 11.896 137.518 11.896C136.654 11.896 135.902 11.464 135.262 10.6C135.838 10.408 136.334 9.88 136.75 9.016C137.166 8.152 137.374 7.288 137.374 6.424C137.374 5.496 137.118 4.824 136.606 4.408C136.094 3.96 135.47 3.736 134.734 3.736C133.806 3.736 132.958 4.072 132.19 4.744C131.454 5.384 130.878 6.232 130.462 7.288C130.046 8.312 129.838 9.384 129.838 10.504C129.838 12.04 130.238 13.4 131.038 14.584C131.838 15.736 133.054 16.52 134.686 16.936C133.054 17.288 131.582 18.088 130.27 19.336C128.958 20.584 127.934 22.04 127.198 23.704C126.462 25.336 126.094 26.904 126.094 28.408C126.094 29.848 126.462 31.016 127.198 31.912C127.966 32.808 129.118 33.256 130.654 33.256C132.254 33.256 133.918 32.824 135.646 31.96C137.406 31.064 138.702 29.864 139.534 28.36L140.638 28.84C139.39 31.592 137.47 33.784 134.878 35.416C132.286 37.048 129.518 37.864 126.574 37.864ZM145.198 37.288C143.374 37.288 141.854 36.664 140.638 35.416C139.421 34.168 138.813 32.216 138.813 29.56C138.813 27.192 139.278 24.712 140.206 22.12C141.166 19.496 142.574 17.288 144.43 15.496C146.318 13.672 148.558 12.76 151.15 12.76C152.462 12.76 153.438 12.984 154.078 13.432C154.718 13.88 155.038 14.472 155.038 15.208V15.544L155.566 13H162.478L159.022 29.32C158.894 29.8 158.83 30.312 158.83 30.856C158.83 32.232 159.486 32.92 160.798 32.92C161.694 32.92 162.462 32.504 163.102 31.672C163.774 30.84 164.302 29.752 164.686 28.408H166.702C165.518 31.864 164.046 34.216 162.286 35.464C160.558 36.68 158.814 37.288 157.054 37.288C155.71 37.288 154.622 36.92 153.79 36.184C152.99 35.416 152.51 34.312 152.35 32.872C151.422 34.184 150.382 35.256 149.23 36.088C148.11 36.888 146.766 37.288 145.198 37.288ZM148.318 32.632C149.118 32.632 149.902 32.264 150.67 31.528C151.47 30.76 152.014 29.72 152.302 28.408L154.606 17.56C154.606 17.144 154.446 16.744 154.126 16.36C153.806 15.944 153.31 15.736 152.638 15.736C151.358 15.736 150.206 16.488 149.182 17.992C148.158 19.464 147.358 21.256 146.782 23.368C146.206 25.448 145.918 27.288 145.918 28.888C145.918 30.488 146.142 31.512 146.59 31.96C147.07 32.408 147.646 32.632 148.318 32.632ZM170.175 37.288C168.639 37.288 167.343 37 166.287 36.424C165.231 35.816 164.447 35.048 163.935 34.12C163.423 33.16 163.167 32.168 163.167 31.144C163.167 30.088 163.423 29.176 163.935 28.408C164.415 27.608 165.007 27.032 165.711 26.68C166.959 24.44 168.047 22.184 168.975 19.912C169.903 17.608 170.783 15.128 171.615 12.472L178.719 11.512C178.879 15.608 179.151 20.04 179.535 24.808C179.695 26.728 179.775 28.12 179.775 28.984C179.775 29.72 179.711 30.328 179.583 30.808C181.087 29.944 182.239 29.144 183.039 28.408H185.055C183.007 30.776 180.559 32.776 177.711 34.408C176.783 35.4 175.631 36.136 174.255 36.616C172.911 37.064 171.551 37.288 170.175 37.288ZM168.639 33.496C169.823 33.496 170.815 33.144 171.615 32.44C172.415 31.736 172.815 30.6 172.815 29.032C172.815 28.072 172.719 26.728 172.527 25C172.207 21.352 171.999 18.904 171.903 17.656C171.135 20.184 169.839 23.208 168.015 26.728C168.751 27.112 169.119 27.672 169.119 28.408C169.119 29.016 168.911 29.56 168.495 30.04C168.111 30.52 167.615 30.76 167.007 30.76C166.335 30.76 165.903 30.552 165.711 30.136C165.711 31.288 165.935 32.136 166.383 32.68C166.863 33.224 167.615 33.496 168.639 33.496ZM189.799 37.288C187.463 37.288 185.639 36.68 184.327 35.464C183.015 34.216 182.359 32.28 182.359 29.656C182.359 27.448 182.791 25.016 183.655 22.36C184.519 19.704 185.927 17.416 187.879 15.496C189.831 13.544 192.311 12.568 195.319 12.568C198.839 12.568 200.599 14.104 200.599 17.176C200.599 18.968 200.087 20.616 199.063 22.12C198.039 23.624 196.679 24.84 194.983 25.768C193.287 26.664 191.479 27.176 189.559 27.304C189.495 28.008 189.463 28.488 189.463 28.744C189.463 31.4 190.455 32.728 192.439 32.728C193.335 32.728 194.295 32.488 195.319 32.008C196.343 31.528 197.271 30.92 198.103 30.184C197.239 34.92 194.471 37.288 189.799 37.288ZM189.895 25C191.111 24.968 192.247 24.568 193.303 23.8C194.391 23.032 195.255 22.056 195.895 20.872C196.567 19.656 196.903 18.392 196.903 17.08C196.903 15.768 196.503 15.112 195.703 15.112C194.583 15.112 193.463 16.136 192.343 18.184C191.255 20.2 190.439 22.472 189.895 25ZM205.889 37.192C204.833 37.192 203.937 36.824 203.201 36.088C202.465 35.352 202.097 34.456 202.097 33.4C202.097 32.344 202.465 31.448 203.201 30.712C203.937 29.944 204.833 29.56 205.889 29.56C206.945 29.56 207.841 29.944 208.577 30.712C209.345 31.448 209.729 32.344 209.729 33.4C209.729 34.456 209.345 35.352 208.577 36.088C207.841 36.824 206.945 37.192 205.889 37.192Z" fill="black"/>
</svg>
